<?xml version="1.0" encoding="UTF-8" standalone="no"?>
<!-- Created with Inkscape (http://www.inkscape.org/) -->

<svg
   width="25"
   height="25"
   viewBox="0 0 25 25"
   id="svg2"
   version="1.1"
   inkscape:version="1.4.4 (dcaf3e7d9e, 2026-05-05)"
   sodipodi:docname="2.svg"
   xmlns:inkscape="http://www.inkscape.org/namespaces/inkscape"
   xmlns:sodipodi="http://sodipodi.sourceforge.net/DTD/sodipodi-0.dtd"
   xmlns="http://www.w3.org/2000/svg"
   xmlns:svg="http://www.w3.org/2000/svg"
   xmlns:rdf="http://www.w3.org/1999/02/22-rdf-syntax-ns#"
   xmlns:cc="http://creativecommons.org/ns#"
   xmlns:dc="http://purl.org/dc/elements/1.1/">
  <defs
     id="defs4" />
  <sodipodi:namedview
     id="base"
     pagecolor="#ffffff"
     bordercolor="#666666"
     borderopacity="1.0"
     inkscape:pageopacity="0.0"
     inkscape:pageshadow="2"
     inkscape:zoom="17.715942"
     inkscape:cx="11.994846"
     inkscape:cy="14.817163"
     inkscape:document-units="px"
     inkscape:current-layer="button"
     showgrid="false"
     units="px"
     inkscape:window-width="1910"
     inkscape:window-height="1025"
     inkscape:window-x="0"
     inkscape:window-y="0"
     inkscape:window-maximized="1"
     fit-margin-top="0"
     fit-margin-left="0"
     fit-margin-right="0"
     fit-margin-bottom="0"
     inkscape:showpageshadow="2"
     inkscape:pagecheckerboard="0"
     inkscape:deskcolor="#d1d1d1" />
  <metadata
     id="metadata7">
    <rdf:RDF>
      <cc:Work
         rdf:about="">
        <dc:format>image/svg+xml</dc:format>
        <dc:type
           rdf:resource="http://purl.org/dc/dcmitype/StillImage" />
        <dc:title />
      </cc:Work>
    </rdf:RDF>
  </metadata>
  <g
     inkscape:label="Controller"
     inkscape:groupmode="layer"
     id="layer1"
     style="opacity:1">
    <g
       id="button"
       transform="matrix(0.94502757,0,0,0.94502757,0.68630333,0.68800748)"
       style="stroke-width:1.05817">
      <circle
         r="12.152555"
         cx="12.4845"
         cy="12.5155"
         id="path4170-0-8-4-6"
         style="color:#000000;display:inline;overflow:visible;visibility:visible;opacity:1;fill:#000000;fill-opacity:0.603352;fill-rule:evenodd;stroke:#000000;stroke-width:2.11634;stroke-linecap:butt;stroke-linejoin:miter;stroke-miterlimit:4;stroke-dasharray:none;stroke-dashoffset:0;stroke-opacity:1;marker:none;enable-background:accumulate" />
      <path
         d="m 8.3341549,18.903065 q -0.188541,0 -0.3205197,-0.113125 -0.1131246,-0.131979 -0.1131246,-0.32052 v -0.603331 q 0,-0.169687 0.094271,-0.377082 0.09427,-0.207395 0.377082,-0.452498 L 12.368932,13.03944 q 0.961559,-0.810726 1.508328,-1.376349 0.565623,-0.584477 0.791872,-1.112392 0.245104,-0.527915 0.245104,-1.093538 0,-1.0746837 -0.603332,-1.6968689 -0.603331,-0.6410394 -1.791139,-0.6410394 -0.754164,0 -1.300933,0.3205197 Q 10.672063,7.741438 10.351544,8.2882068 10.049878,8.8161216 9.9556075,9.4948692 9.9178993,9.7399725 9.7482124,9.834243 9.5973796,9.9285135 9.4654009,9.9285135 H 8.4849877 q -0.1696869,0 -0.2828115,-0.09427 Q 8.0890516,9.7211184 8.0890516,9.5702856 8.1079057,8.8538298 8.3907172,8.137374 8.6735287,7.4020642 9.2202976,6.8175871 9.7859206,6.23311 10.596647,5.8748821 q 0.82958,-0.377082 1.923118,-0.377082 1.489474,0 2.432179,0.5467689 0.961559,0.5279148 1.414057,1.4140575 0.452499,0.8861426 0.452499,1.9419722 0,0.8295803 -0.282812,1.5271823 -0.282811,0.678747 -0.82958,1.338641 -0.527915,0.641039 -1.319787,1.319787 l -3.619987,3.676549 h 5.882479 q 0.207395,0 0.320519,0.113125 0.131979,0.113124 0.131979,0.320519 v 0.773018 q 0,0.188541 -0.131979,0.32052 -0.113124,0.113125 -0.320519,0.113125 z"
         id="text1"
         style="font-size:18.8541px;font-family:Rubik;-inkscape-font-specification:'Rubik, @wght=400';font-variation-settings:'wght' 400;fill:#ffffff;stroke-width:0;stroke-linecap:round;stroke-linejoin:round;paint-order:markers fill stroke"
         aria-label="2" />
    </g>
  </g>
</svg>
