<?xml version="1.0" encoding="UTF-8" standalone="no"?>
<!-- Created with Inkscape (http://www.inkscape.org/) -->

<svg
   width="49"
   height="32"
   viewBox="0 0 48.999999 32"
   id="svg2"
   version="1.1"
   inkscape:version="1.4.4 (dcaf3e7d9e, 2026-05-05)"
   sodipodi:docname="LGRIP.svg"
   xmlns:inkscape="http://www.inkscape.org/namespaces/inkscape"
   xmlns:sodipodi="http://sodipodi.sourceforge.net/DTD/sodipodi-0.dtd"
   xmlns="http://www.w3.org/2000/svg"
   xmlns:svg="http://www.w3.org/2000/svg"
   xmlns:rdf="http://www.w3.org/1999/02/22-rdf-syntax-ns#"
   xmlns:cc="http://creativecommons.org/ns#"
   xmlns:dc="http://purl.org/dc/elements/1.1/">
  <defs
     id="defs4" />
  <sodipodi:namedview
     id="base"
     pagecolor="#ffffff"
     bordercolor="#666666"
     borderopacity="1.0"
     inkscape:pageopacity="0.0"
     inkscape:pageshadow="2"
     inkscape:zoom="15.839192"
     inkscape:cx="20.897531"
     inkscape:cy="10.448765"
     inkscape:document-units="px"
     inkscape:current-layer="layer1"
     showgrid="false"
     units="px"
     inkscape:window-width="1910"
     inkscape:window-height="1025"
     inkscape:window-x="0"
     inkscape:window-y="0"
     inkscape:window-maximized="1"
     fit-margin-top="0"
     fit-margin-left="0"
     fit-margin-right="0"
     fit-margin-bottom="0"
     inkscape:showpageshadow="2"
     inkscape:pagecheckerboard="0"
     inkscape:deskcolor="#d1d1d1" />
  <metadata
     id="metadata7">
    <rdf:RDF>
      <cc:Work
         rdf:about="">
        <dc:format>image/svg+xml</dc:format>
        <dc:type
           rdf:resource="http://purl.org/dc/dcmitype/StillImage" />
        <dc:title />
      </cc:Work>
    </rdf:RDF>
  </metadata>
  <g
     inkscape:label="Layer 1"
     inkscape:groupmode="layer"
     id="layer1"
     transform="translate(-225.71241,-856.40319)">
    <path
       id="rect1"
       style="font-variation-settings:'wght' 500;fill:#000000;fill-opacity:0.137255;stroke:#000000;stroke-width:2;stroke-linecap:round;stroke-linejoin:round;paint-order:markers fill stroke"
       d="m 234.35307,861.25262 c 7.31537,-6.32405 31.0365,0 31.0365,0 0,0 -3.0588,3.27158 -3.0588,11.19096 0,7.91938 3.0588,11.19095 3.0588,11.19095 0,0 -23.72113,6.32405 -31.0365,0 -3.05121,-2.63773 -3.6298,-6.91434 -3.6298,-11.19096 0,-4.27661 0.57859,-8.55322 3.6298,-11.19095 z"
       sodipodi:nodetypes="sczcsss" />
    <path
       d="m 240.00442,872.15845 q -0.17817,0 -0.3029,-0.12473 -0.12472,-0.12472 -0.12472,-0.3029 v -11.61707 q 0,-0.17818 0.12472,-0.3029 0.12473,-0.12472 0.3029,-0.12472 h 1.65704 q 0.17818,0 0.3029,0.12472 0.12472,0.12472 0.12472,0.3029 v 9.9244 h 5.64818 q 0.19599,0 0.32072,0.12473 0.12472,0.12472 0.12472,0.32071 v 1.24723 q 0,0.17818 -0.12472,0.3029 -0.12473,0.12473 -0.32072,0.12473 z m 13.42297,0.17817 q -1.63922,0 -2.79736,-0.57016 -1.14033,-0.57016 -1.78176,-1.63922 -0.62362,-1.08687 -0.67707,-2.58355 -0.0178,-0.76616 -0.0178,-1.63922 0,-0.89088 0.0178,-1.67485 0.0534,-1.47887 0.67707,-2.5301 0.64143,-1.05124 1.79958,-1.62141 1.17596,-0.57016 2.77954,-0.57016 1.30069,0 2.28066,0.35635 0.97996,0.33854 1.6214,0.89088 0.65925,0.53453 0.97997,1.15815 0.33853,0.62361 0.35635,1.15814 0.0178,0.16036 -0.0891,0.26727 -0.10691,0.1069 -0.28508,0.1069 h -1.83521 q -0.17818,0 -0.26727,-0.0713 -0.0891,-0.0713 -0.16036,-0.21381 -0.14254,-0.37417 -0.44544,-0.73052 -0.3029,-0.37417 -0.81961,-0.62362 -0.51671,-0.24944 -1.33632,-0.24944 -1.21159,0 -1.94211,0.64143 -0.71271,0.64143 -0.76616,2.12029 -0.0534,1.55013 0,3.1359 0.0534,1.5145 0.78397,2.17375 0.74834,0.65925 1.95994,0.65925 0.80179,0 1.42541,-0.28508 0.64143,-0.28508 0.99778,-0.89088 0.37417,-0.6058 0.37417,-1.55013 v -0.55235 h -2.17375 q -0.17817,0 -0.30289,-0.12472 -0.12473,-0.12473 -0.12473,-0.32072 v -0.94433 q 0,-0.196 0.12473,-0.32072 0.12472,-0.12472 0.30289,-0.12472 h 4.25841 q 0.19599,0 0.3029,0.12472 0.12472,0.12472 0.12472,0.32072 v 1.87085 q 0,1.49667 -0.65925,2.58355 -0.64143,1.08687 -1.85303,1.67485 -1.19378,0.58798 -2.833,0.58798 z"
       id="text1"
       style="font-size:17.8176px;font-family:Rubik;-inkscape-font-specification:'Rubik, @wght=500';font-variation-settings:'wght' 500;stroke:#000000;stroke-width:1.2;stroke-linecap:round;stroke-linejoin:round;stroke-opacity:0;paint-order:markers fill stroke"
       transform="scale(0.99257121,1.0074844)"
       aria-label="LG" />
  </g>
</svg>
