<?xml version="1.0" encoding="UTF-8" standalone="no"?>
<!-- Created with Inkscape (http://www.inkscape.org/) -->

<svg
   width="25"
   height="25"
   viewBox="0 0 25 25"
   id="svg2"
   version="1.1"
   inkscape:version="1.4.4 (dcaf3e7d9e, 2026-05-05)"
   sodipodi:docname="Y.svg"
   xmlns:inkscape="http://www.inkscape.org/namespaces/inkscape"
   xmlns:sodipodi="http://sodipodi.sourceforge.net/DTD/sodipodi-0.dtd"
   xmlns="http://www.w3.org/2000/svg"
   xmlns:svg="http://www.w3.org/2000/svg"
   xmlns:rdf="http://www.w3.org/1999/02/22-rdf-syntax-ns#"
   xmlns:cc="http://creativecommons.org/ns#"
   xmlns:dc="http://purl.org/dc/elements/1.1/">
  <defs
     id="defs4" />
  <sodipodi:namedview
     id="base"
     pagecolor="#ffffff"
     bordercolor="#666666"
     borderopacity="1.0"
     inkscape:pageopacity="0.0"
     inkscape:pageshadow="2"
     inkscape:zoom="17.715942"
     inkscape:cx="11.740838"
     inkscape:cy="14.647824"
     inkscape:document-units="px"
     inkscape:current-layer="button"
     showgrid="false"
     units="px"
     inkscape:window-width="1910"
     inkscape:window-height="1025"
     inkscape:window-x="0"
     inkscape:window-y="0"
     inkscape:window-maximized="1"
     fit-margin-top="0"
     fit-margin-left="0"
     fit-margin-right="0"
     fit-margin-bottom="0"
     inkscape:showpageshadow="2"
     inkscape:pagecheckerboard="0"
     inkscape:deskcolor="#d1d1d1" />
  <metadata
     id="metadata7">
    <rdf:RDF>
      <cc:Work
         rdf:about="">
        <dc:format>image/svg+xml</dc:format>
        <dc:type
           rdf:resource="http://purl.org/dc/dcmitype/StillImage" />
        <dc:title />
      </cc:Work>
    </rdf:RDF>
  </metadata>
  <g
     inkscape:label="Controller"
     inkscape:groupmode="layer"
     id="layer1"
     style="opacity:1">
    <g
       id="button"
       transform="matrix(0.94502757,0,0,0.94502757,0.68630333,0.68800748)"
       style="stroke-width:1.05817">
      <circle
         r="12.152555"
         cx="12.4845"
         cy="12.5155"
         id="path4170-0"
         style="color:#000000;display:inline;overflow:visible;visibility:visible;opacity:1;fill:#000000;fill-opacity:0.603352;fill-rule:evenodd;stroke:#000000;stroke-width:2.11634;stroke-linecap:butt;stroke-linejoin:miter;stroke-miterlimit:4;stroke-dasharray:none;stroke-dashoffset:0;stroke-opacity:1;marker:none;enable-background:accumulate" />
      <path
         d="m 11.680395,19.413504 q -0.178176,0 -0.3029,-0.124724 -0.124723,-0.124723 -0.124723,-0.302899 V 14.959104 L 7.0478185,7.5113467 q -0.017818,-0.035635 -0.035635,-0.089088 -0.017818,-0.053453 -0.017818,-0.1069056 0,-0.1603584 0.1069056,-0.267264 0.1069056,-0.1069056 0.2494464,-0.1069056 h 1.5857664 q 0.2138112,0 0.3385344,0.1069056 0.1425408,0.1069056 0.1959936,0.2316288 L 12.500004,12.46464 15.511179,7.2797179 q 0.07127,-0.1247232 0.195993,-0.2316288 0.142541,-0.1069056 0.356352,-0.1069056 h 1.567949 q 0.160358,0 0.267264,0.1069056 0.106906,0.1069056 0.106906,0.267264 0,0.053453 -0.01782,0.1069056 0,0.053453 -0.03563,0.089088 l -4.204954,7.4477573 v 4.026777 q 0,0.178176 -0.124723,0.302899 -0.124723,0.124724 -0.320717,0.124724 z"
         id="text1"
         style="font-size:17.8176px;font-family:Rubik;-inkscape-font-specification:'Rubik, @wght=500';font-variation-settings:'wght' 500;fill:#bfbf00;stroke-width:0;stroke-linecap:round;stroke-linejoin:round;paint-order:markers fill stroke"
         transform="matrix(1.0581702,0,0,1.0581702,-0.72622572,-0.728029)"
         aria-label="Y" />
    </g>
  </g>
</svg>
