<?xml version="1.0" encoding="UTF-8" standalone="no"?>
<svg
   width="446"
   height="345"
   viewBox="0 0 446 345"
   id="svg2"
   version="1.1"
   sodipodi:docname="sc2.svg"
   inkscape:version="1.4.4 (dcaf3e7d9e, 2026-05-05)"
   xml:space="preserve"
   xmlns:inkscape="http://www.inkscape.org/namespaces/inkscape"
   xmlns:sodipodi="http://sodipodi.sourceforge.net/DTD/sodipodi-0.dtd"
   xmlns="http://www.w3.org/2000/svg"
   xmlns:svg="http://www.w3.org/2000/svg"><sodipodi:namedview
     id="namedview4"
     pagecolor="#ffffff"
     bordercolor="#000000"
     borderopacity="0.25"
     inkscape:showpageshadow="2"
     inkscape:pageopacity="0.0"
     inkscape:pagecheckerboard="false"
     inkscape:deskcolor="#d1d1d1"
     inkscape:zoom="2"
     inkscape:cx="204.25"
     inkscape:cy="174.25"
     inkscape:window-width="1910"
     inkscape:window-height="1025"
     inkscape:window-x="0"
     inkscape:window-y="0"
     inkscape:window-maximized="1"
     inkscape:current-layer="controller" /><defs
     id="defs4"><inkscape:path-effect
       effect="tiling"
       id="path-effect33"
       is_visible="true"
       lpeversion="1.3.1"
       unit="px"
       seed="1;1"
       lpesatellites=""
       num_rows="3"
       num_cols="1"
       gapx="0"
       gapy="1"
       offset="0"
       offset_type="false"
       scale="0"
       rotate="0"
       mirrorrowsx="false"
       mirrorrowsy="false"
       mirrorcolsx="false"
       mirrorcolsy="false"
       mirrortrans="false"
       shrink_interp="false"
       split_items="false"
       link_styles="false"
       interpolate_scalex="false"
       interpolate_scaley="true"
       interpolate_rotatex="false"
       interpolate_rotatey="true"
       random_scale="false"
       random_rotate="false"
       random_gap_y="false"
       random_gap_x="false"
       transformorigin="" /><inkscape:path-effect
       effect="tiling"
       id="path-effect30"
       is_visible="true"
       lpeversion="1.3.1"
       unit="px"
       seed="1;1"
       lpesatellites=""
       num_rows="1"
       num_cols="3"
       gapx="4"
       gapy="0"
       offset="0"
       offset_type="false"
       scale="0"
       rotate="0"
       mirrorrowsx="false"
       mirrorrowsy="false"
       mirrorcolsx="false"
       mirrorcolsy="false"
       mirrortrans="false"
       shrink_interp="false"
       split_items="false"
       link_styles="false"
       interpolate_scalex="false"
       interpolate_scaley="true"
       interpolate_rotatex="false"
       interpolate_rotatey="true"
       random_scale="false"
       random_rotate="false"
       random_gap_y="false"
       random_gap_x="false"
       transformorigin="" /><inkscape:path-effect
       effect="clone_original"
       linkeditem=""
       id="path-effect29"
       is_visible="true"
       lpeversion="1"
       method="d"
       attributes=""
       css_properties=""
       allow_transforms="true" /><filter
       inkscape:collect="always"
       style="color-interpolation-filters:sRGB"
       id="filter29"
       x="-0.18155011"
       y="-0.039507075"
       width="1.3631002"
       height="1.0790142"><feGaussianBlur
         inkscape:collect="always"
         stdDeviation="2.3194014"
         id="feGaussianBlur29" /></filter></defs><g
     inkscape:groupmode="layer"
     id="controller"
     inkscape:label="Controller"
     style="display:inline"><path
       style="display:inline;opacity:1;fill:#000000;fill-opacity:0.603922;stroke:#000000;stroke-width:1.5;stroke-linejoin:round;stroke-dasharray:none;stroke-opacity:1"
       d="m 120.75546,22.62015 c 0,0 -4.66602,-4.912501 -14.5551,-4.855233 -6.956999,0.04029 -14.764649,2.729515 -19.472759,6.464653 -4.85953,3.855269 -6.2102,7.193055 -6.2102,7.193055 13.11647,-5.981123 26.479179,-9.165466 40.238059,-8.802475 z"
       id="LT"
       sodipodi:nodetypes="csscc"
       inkscape:label="LT" /><path
       style="display:inline;opacity:1;fill:#000000;fill-opacity:0.603922;stroke:#000000;stroke-width:2;stroke-linejoin:round;stroke-dasharray:none;stroke-opacity:1"
       d="m 133.73623,26.37015 c 0,0 -5.76287,-4.067088 -19.53106,-3.557156 -11.43103,0.423372 -26.775089,4.14899 -35.246299,10.128663 -6.06821,4.283435 -6.37416,9.586737 -6.37416,9.586737"
       id="LB"
       sodipodi:nodetypes="cssc"
       inkscape:label="LB" /><path
       style="display:inline;opacity:1;fill:#000000;fill-opacity:0.603922;stroke:#000000;stroke-width:1.5;stroke-linejoin:round;stroke-dasharray:none;stroke-opacity:1"
       d="m 325.55894,22.62015 c 0,0 4.66602,-4.912501 14.5551,-4.855233 6.95704,0.04029 14.76469,2.729515 19.4728,6.464653 4.85953,3.855269 6.2102,7.193055 6.2102,7.193055 -13.11647,-5.981123 -26.47922,-9.165466 -40.2381,-8.802475 z"
       id="RT"
       sodipodi:nodetypes="csscc"
       inkscape:label="RT" /><path
       style="opacity:1;fill:#000000;fill-opacity:0.603922;stroke:#000000;stroke-width:2;stroke-linejoin:round;stroke-dasharray:none;stroke-opacity:1"
       d="m 312.57817,26.37015 c 0,0 5.76287,-4.067088 19.53106,-3.557156 11.43103,0.423372 26.77513,4.14899 35.24634,10.128663 6.06821,4.283435 6.37416,9.586737 6.37416,9.586737"
       id="RB"
       sodipodi:nodetypes="cssc"
       inkscape:label="RB" /><path
       id="controller_body"
       style="opacity:1;fill:#000000;fill-opacity:0.137255;stroke:#000000;stroke-width:4;stroke-linejoin:round;stroke-dasharray:none;stroke-opacity:1"
       d="M 149.8457,26.185547 C 137.28311,26.75847 74.053513,29.409362 59.720703,58.119141 49.154263,79.284586 41.923414,104.73719 34.558594,135.25195 21.544954,189.1715 12.224077,236.99133 20.742188,278.66406 c 7.606079,37.21086 30.762508,43.25415 45.855468,44.47852 15.09297,1.22438 24.836185,-6.77471 27.203125,-14.08985 8.464109,-26.15892 11.846659,-53.11262 44.044919,-52.65039 h 84.68946 0.98828 84.6875 c 32.19826,-0.46223 35.58273,26.49147 44.04687,52.65039 2.36694,7.31514 12.1082,15.31423 27.20117,14.08985 15.09296,-1.22437 38.25135,-7.26766 45.85743,-44.47852 8.51811,-41.67273 -0.80472,-89.49256 -13.81836,-143.41211 C 404.13323,104.73719 396.90238,79.284586 386.33594,58.119141 372.00313,29.409362 308.77353,26.75847 296.21094,26.185547 h -72.6875 -0.98828 z"
       inkscape:label="controller_body"
       sodipodi:insensitive="true" /><rect
       style="opacity:1;fill:#000000;fill-opacity:0.603922;stroke:#000000;stroke-width:2;stroke-linejoin:round;stroke-dasharray:none;stroke-opacity:1"
       id="RPAD"
       width="89.167"
       height="89.167107"
       x="-308.78818"
       y="194.224"
       transform="matrix(-0.98348639,0.18098209,0.18098209,0.98348639,0,0)"
       ry="16.475573" /><circle
       style="display:inline;opacity:1;fill:#000000;fill-opacity:0.6;stroke:#000000;stroke-width:2;stroke-linejoin:round;stroke-dasharray:none;stroke-opacity:1"
       id="A"
       cx="351.34616"
       cy="100.09615"
       inkscape:label="A"
       r="12.5" /><text
       xml:space="preserve"
       style="font-style:normal;font-variant:normal;font-weight:normal;font-stretch:normal;font-size:19.2041px;font-family:Rubik;-inkscape-font-specification:'Rubik, Normal';font-variant-ligatures:normal;font-variant-caps:normal;font-variant-numeric:normal;font-variant-east-asian:normal;writing-mode:lr-tb;direction:ltr;display:inline;opacity:1;fill:#ffffff;fill-opacity:0.67451;stroke:#000000;stroke-width:1.2;stroke-linecap:round;stroke-linejoin:round;stroke-dasharray:none;stroke-dashoffset:0;stroke-opacity:0;paint-order:markers fill stroke"
       x="343.92291"
       y="106.45842"
       id="text36"
       transform="scale(1.0028253,0.99718265)"
       inkscape:label="A_glyph"
       sodipodi:insensitive="true"><tspan
         sodipodi:role="line"
         id="tspan36"
         x="343.92291"
         y="106.45842"
         style="font-style:normal;font-variant:normal;font-weight:normal;font-stretch:normal;font-size:19.2041px;font-family:Rubik;-inkscape-font-specification:'Rubik, Normal';font-variant-ligatures:normal;font-variant-caps:normal;font-variant-numeric:normal;font-variant-east-asian:normal;stroke-width:1.2">A</tspan></text><circle
       style="display:inline;opacity:1;fill:#000000;fill-opacity:0.6;stroke:#000000;stroke-width:2;stroke-linejoin:round;stroke-dasharray:none;stroke-opacity:1"
       id="Y"
       cx="351.34616"
       cy="57.280266"
       r="12.5" /><text
       xml:space="preserve"
       style="font-style:normal;font-variant:normal;font-weight:normal;font-stretch:normal;font-size:19.2041px;font-family:Rubik;-inkscape-font-specification:'Rubik, Normal';font-variant-ligatures:normal;font-variant-caps:normal;font-variant-numeric:normal;font-variant-east-asian:normal;writing-mode:lr-tb;direction:ltr;display:inline;opacity:1;fill:#ffffff;fill-opacity:0.67451;stroke:#000000;stroke-width:1.2;stroke-linecap:round;stroke-linejoin:round;stroke-dasharray:none;stroke-dashoffset:0;stroke-opacity:0;paint-order:markers fill stroke"
       x="344.14377"
       y="64.695351"
       id="text38"
       transform="scale(1.0028253,0.99718265)"
       inkscape:label="Y_glyph"
       sodipodi:insensitive="true"><tspan
         sodipodi:role="line"
         id="tspan38"
         x="344.14377"
         y="64.695351"
         style="font-style:normal;font-variant:normal;font-weight:normal;font-stretch:normal;font-size:19.2041px;font-family:Rubik;-inkscape-font-specification:'Rubik, Normal';font-variant-ligatures:normal;font-variant-caps:normal;font-variant-numeric:normal;font-variant-east-asian:normal;stroke-width:1.2">Y</tspan></text><circle
       style="display:inline;opacity:1;fill:#000000;fill-opacity:0.6;stroke:#000000;stroke-width:2;stroke-linejoin:round;stroke-dasharray:none;stroke-opacity:1"
       id="X"
       cx="327.34616"
       cy="78.096153"
       r="12.5" /><text
       xml:space="preserve"
       style="font-style:normal;font-variant:normal;font-weight:normal;font-stretch:normal;font-size:19.2041px;font-family:Rubik;-inkscape-font-specification:'Rubik, Normal';font-variant-ligatures:normal;font-variant-caps:normal;font-variant-numeric:normal;font-variant-east-asian:normal;writing-mode:lr-tb;direction:ltr;display:inline;opacity:1;fill:#ffffff;fill-opacity:0.67451;stroke:#000000;stroke-width:1.2;stroke-linecap:round;stroke-linejoin:round;stroke-dasharray:none;stroke-dashoffset:0;stroke-opacity:0;paint-order:markers fill stroke"
       x="320.33621"
       y="85.038223"
       id="text39"
       transform="scale(1.0028253,0.99718265)"
       inkscape:label="X_glyph"
       sodipodi:insensitive="true"><tspan
         sodipodi:role="line"
         id="tspan39"
         x="320.33621"
         y="85.038223"
         style="font-style:normal;font-variant:normal;font-weight:normal;font-stretch:normal;font-size:19.2041px;font-family:Rubik;-inkscape-font-specification:'Rubik, Normal';font-variant-ligatures:normal;font-variant-caps:normal;font-variant-numeric:normal;font-variant-east-asian:normal;stroke-width:1.2">X</tspan></text><circle
       style="display:inline;opacity:1;fill:#000000;fill-opacity:0.6;stroke:#000000;stroke-width:2;stroke-linejoin:round;stroke-dasharray:none;stroke-opacity:1"
       id="B"
       cx="375.34616"
       cy="78.096153"
       r="12.5" /><text
       xml:space="preserve"
       style="font-style:normal;font-variant:normal;font-weight:normal;font-stretch:normal;font-size:19.2041px;font-family:Rubik;-inkscape-font-specification:'Rubik, Normal';font-variant-ligatures:normal;font-variant-caps:normal;font-variant-numeric:normal;font-variant-east-asian:normal;writing-mode:lr-tb;direction:ltr;display:inline;opacity:1;fill:#ffffff;fill-opacity:0.67451;stroke:#000000;stroke-width:1.2;stroke-linecap:round;stroke-linejoin:round;stroke-dasharray:none;stroke-dashoffset:0;stroke-opacity:0;paint-order:markers fill stroke"
       x="368.09604"
       y="85.038223"
       id="text37"
       transform="scale(1.0028253,0.99718265)"
       inkscape:label="B_glyph"
       sodipodi:insensitive="true"><tspan
         sodipodi:role="line"
         id="tspan37"
         x="368.09604"
         y="85.038223"
         style="font-style:normal;font-variant:normal;font-weight:normal;font-stretch:normal;font-size:19.2041px;font-family:Rubik;-inkscape-font-specification:'Rubik, Normal';font-variant-ligatures:normal;font-variant-caps:normal;font-variant-numeric:normal;font-variant-east-asian:normal;stroke-width:1.2">B</tspan></text><circle
       style="opacity:1;fill:#000000;fill-opacity:0.603922;stroke:#000000;stroke-width:2;stroke-linejoin:round;stroke-dasharray:none;stroke-opacity:1"
       id="C"
       cx="223.07607"
       cy="78.282623"
       r="13.493757"
       inkscape:label="C" /><path
       id="path36"
       style="display:inline;opacity:1;fill:#ffffff;fill-opacity:0.67451;stroke:#000000;stroke-width:1.2;stroke-linecap:round;stroke-linejoin:round;stroke-opacity:0;paint-order:markers fill stroke"
       d="m 228.38036,69.821152 c -0.73147,-0.0356 -1.46596,0.0904 -2.14788,0.372041 -0.90919,0.376477 -1.68612,1.01268 -2.23336,1.829492 -0.54725,0.816823 -0.83794,1.776187 -0.83794,2.757892 v 0.06486 l -3.14484,4.549839 h -0.20862 c -0.75068,0 -1.48357,0.224583 -2.10341,0.646808 l -7.05408,-2.909781 c -0.0372,0.353341 -0.0599,0.708038 -0.0683,1.063223 0.002,1.207533 0.17306,2.408875 0.50448,3.570238 l 5.05157,2.085486 c 0.18243,0.907372 0.69495,1.713777 1.43991,2.264679 0.74588,0.550895 1.66991,0.806571 2.59247,0.715072 0.92261,-0.09152 1.77827,-0.52204 2.40095,-1.208284 0.62175,-0.68624 0.96622,-1.579841 0.96622,-2.505311 v -0.175782 l 4.48382,-3.193079 h 0.11292 c 0.98464,7.15e-4 1.94673,-0.290108 2.76519,-0.836241 0.81849,-0.545184 1.45694,-1.319772 1.8332,-2.227135 0.37725,-0.907362 0.47757,-1.906928 0.28559,-2.870527 -0.19194,-0.963599 -0.66594,-1.848039 -1.36122,-2.542857 -0.69624,-0.694822 -1.58245,-1.167646 -2.54801,-1.360174 -0.24138,-0.04789 -0.48469,-0.07857 -0.72851,-0.09046 z m -0.40529,1.667363 c 0.48729,-0.02392 0.97547,0.05947 1.42962,0.247459 0.60549,0.250673 1.12293,0.674292 1.48778,1.218523 0.36387,0.544227 0.55918,1.184942 0.55918,1.839733 -8.6e-4,0.876864 -0.34957,1.717586 -0.9713,2.338064 -0.62177,0.619518 -1.46495,0.969358 -2.34454,0.969358 -0.65517,0 -1.29738,-0.192271 -1.84176,-0.556356 -0.54534,-0.363138 -0.96979,-0.881231 -1.22098,-1.486462 -0.25109,-0.604273 -0.31778,-1.269015 -0.18984,-1.911411 0.12803,-0.641451 0.44486,-1.2307 0.90805,-1.692962 0.46416,-0.463213 1.0554,-0.778514 1.69812,-0.906215 0.16068,-0.03194 0.32324,-0.05175 0.48567,-0.05972 z m 0.28729,0.820883 c -0.36597,-0.0177 -0.73227,0.04619 -1.07393,0.187727 -0.45463,0.187765 -0.84353,0.506819 -1.11668,0.914746 -0.27406,0.408887 -0.42068,0.890552 -0.42068,1.382359 0,0.324057 0.0639,0.645233 0.18811,0.945465 0.12508,0.302133 0.30924,0.577328 0.54036,0.808937 0.23113,0.231606 0.50537,0.415187 0.80719,0.540997 0.30274,0.125796 0.62662,0.189435 0.95423,0.189435 0.49277,0 0.97639,-0.144575 1.38515,-0.418122 0.4097,-0.272591 0.72847,-0.66244 0.91659,-1.116126 0.18902,-0.454636 0.23916,-0.954694 0.14366,-1.43697 -0.0964,-0.482282 -0.33373,-0.925254 -0.68233,-1.273136 -0.34858,-0.347891 -0.79246,-0.582972 -1.27571,-0.679233 -0.12086,-0.02383 -0.24396,-0.04018 -0.36596,-0.04606 z m -8.25454,8.022801 c 0.1347,0.0096 0.26888,0.02896 0.40185,0.05805 0.531,0.116279 1.01949,0.386137 1.40057,0.773096 0.38106,0.387923 0.64034,0.876877 0.7473,1.409664 0.10704,0.532796 0.0572,1.085423 -0.14536,1.590568 -0.20151,0.504203 -0.54679,0.937575 -0.99184,1.249242 -0.44601,0.312619 -0.97341,0.48875 -1.51684,0.506864 -0.54437,0.01808 -1.08253,-0.122348 -1.54762,-0.404468 -0.46606,-0.281167 -0.83899,-0.691081 -1.07394,-1.180977 h 0.002 l 1.61944,0.667287 c 0.50619,0.209692 1.07391,0.209464 1.5801,0.0018 0.50617,-0.207775 0.90902,-0.608512 1.12011,-1.112714 0.21011,-0.504197 0.21197,-1.070053 0.002,-1.575207 -0.20916,-0.505153 -0.60976,-0.908142 -1.11498,-1.117833 L 218.81645,80.5081 c 0.38176,-0.144397 0.78783,-0.204285 1.19192,-0.175783 z"
       sodipodi:nodetypes="scssccsccccccscscccccsccsssscccscccssssccscscscccscsscccscccccccccccccc"
       inkscape:label="C_glyph" /><rect
       style="opacity:1;fill:#000000;fill-opacity:0.603922;stroke:#000000;stroke-width:2;stroke-linejoin:round;stroke-dasharray:none;stroke-opacity:1"
       id="START"
       width="26.959671"
       height="10.305262"
       x="283.57913"
       y="44.93417"
       ry="5.1526308" /><path
       style="display:inline;opacity:1;fill:#ffffff;fill-opacity:0.67451;stroke:none;stroke-width:1;stroke-linejoin:round;stroke-dasharray:none;stroke-dashoffset:0;stroke-opacity:1"
       id="rect32"
       width="11.804871"
       height="1.1901226"
       x="291.08047"
       y="47.751232"
       ry="0.5950613"
       inkscape:path-effect="#path-effect33"
       sodipodi:type="rect"
       d="m 291.67554,47.751232 h 10.61474 c 0.32967,0 0.59507,0.265397 0.59507,0.595061 0,0.329664 -0.2654,0.595062 -0.59507,0.595062 h -10.61474 c -0.32967,0 -0.59507,-0.265398 -0.59507,-0.595062 0,-0.329664 0.2654,-0.595061 0.59507,-0.595061 z m 0,2.190123 h 10.61474 c 0.32967,0 0.59507,0.265397 0.59507,0.595061 0,0.329664 -0.2654,0.595061 -0.59507,0.595061 h -10.61474 c -0.32967,0 -0.59507,-0.265397 -0.59507,-0.595061 0,-0.329664 0.2654,-0.595061 0.59507,-0.595061 z m 0,2.190122 h 10.61474 c 0.32967,0 0.59507,0.265398 0.59507,0.595062 0,0.329664 -0.2654,0.595061 -0.59507,0.595061 h -10.61474 c -0.32967,0 -0.59507,-0.265397 -0.59507,-0.595061 0,-0.329664 0.2654,-0.595062 0.59507,-0.595062 z"
       transform="translate(0.07605743,-0.44961548)"
       inkscape:label="START_glyph" /><circle
       style="opacity:1;fill:#000000;fill-opacity:0.6;stroke:#000000;stroke-width:2;stroke-linejoin:round;stroke-dasharray:none;stroke-opacity:1"
       id="RSTICK"
       cx="283.59393"
       cy="107.36629"
       r="21.860748" /><circle
       style="opacity:1;fill:#000000;fill-opacity:0.30000001;stroke:#000000;stroke-width:2;stroke-linejoin:round;stroke-dasharray:none;stroke-opacity:1"
       id="RSTICKPRESS"
       cx="283.59393"
       cy="107.36629"
       r="15.678635" /><rect
       style="opacity:1;fill:#000000;fill-opacity:0.603922;stroke:#000000;stroke-width:2;stroke-linejoin:round;stroke-dasharray:none;stroke-opacity:1"
       id="DOTS"
       width="35.474041"
       height="14.623014"
       x="205.34157"
       y="179.30647"
       ry="7.3115072" /><path
       id="C-7-5"
       d="m 216.72659,186.61798 c 0,1.29918 -1.05303,2.35237 -2.352,2.35237 -1.29898,0 -2.352,-1.05319 -2.352,-2.35237 0,-1.29917 1.05302,-2.35236 2.352,-2.35236 1.29897,0 2.352,1.05319 2.352,2.35236 z m 8.704,0 c 0,1.29918 -1.05303,2.35237 -2.352,2.35237 -1.29898,0 -2.352,-1.05319 -2.352,-2.35237 0,-1.29917 1.05302,-2.35236 2.352,-2.35236 1.29897,0 2.352,1.05319 2.352,2.35236 z m 8.704,0 c 0,1.29918 -1.05303,2.35237 -2.352,2.35237 -1.29898,0 -2.352,-1.05319 -2.352,-2.35237 0,-1.29917 1.05302,-2.35236 2.352,-2.35236 1.29897,0 2.352,1.05319 2.352,2.35236 z"
       style="color:#000000;display:inline;overflow:visible;visibility:visible;fill:#ffffff;fill-opacity:0.676137;fill-rule:evenodd;stroke:none;stroke-width:0.434817;stroke-linecap:butt;stroke-linejoin:miter;stroke-miterlimit:4;stroke-dasharray:none;stroke-dashoffset:0;stroke-opacity:1;marker:none;enable-background:accumulate"
       inkscape:label="DOTS_glyph"
       sodipodi:insensitive="true" /><path
       id="rect15"
       style="opacity:1;fill:#000000;fill-opacity:0.603922;stroke:#000000;stroke-width:2;stroke-linejoin:round;stroke-dasharray:none;stroke-opacity:1"
       d="m 93.783203,48.166016 c -4.525937,0 -8.169922,0.760681 -8.169922,1.705078 V 68.587891 H 66.896484 c -0.944396,0 -1.703125,3.643984 -1.703125,8.169921 v 2.378907 c 0,4.525937 0.758729,8.169922 1.703125,8.169922 h 18.716797 v 18.716799 c 0,0.94439 3.643985,1.70508 8.169922,1.70508 h 2.380859 c 4.525938,0 8.167968,-0.76069 8.167968,-1.70508 V 87.306641 h 18.7168 c 0.94439,0 1.70508,-3.643985 1.70508,-8.169922 v -2.378907 c 0,-4.525937 -0.76069,-8.169921 -1.70508,-8.169921 h -18.7168 V 49.871094 c 0,-0.944397 -3.64203,-1.705078 -8.167968,-1.705078 z"
       inkscape:label="DPAD" /><g
       id="g16"
       style="opacity:0.302"
       inkscape:label="accents"
       sodipodi:insensitive="true"><path
         style="opacity:1;fill:none;stroke:#000000;stroke-width:2;stroke-linejoin:round;stroke-dasharray:none;stroke-opacity:1"
         d="m 378.94497,322.01469 c 17.62961,-13.91562 -0.24469,-167.88366 -16.94324,-186.2513 -14.60886,-16.06908 -31.8575,-15.97974 -54.64596,-17.06147"
         id="path9"
         sodipodi:nodetypes="csc" /><path
         style="opacity:1;fill:none;stroke:#000000;stroke-width:2;stroke-linejoin:round;stroke-dasharray:none;stroke-opacity:1"
         d="m 186.47596,116.68269 h 72.58053"
         id="path11"
         sodipodi:nodetypes="cc" /><path
         style="opacity:1;fill:none;stroke:#000000;stroke-width:2;stroke-linejoin:round;stroke-dasharray:none;stroke-opacity:1"
         d="m 68.285601,322.01469 c -17.62961,-13.91562 0.24469,-167.88366 16.94324,-186.2513 14.608867,-16.06908 31.857509,-15.97974 54.645969,-17.06147"
         id="path16"
         sodipodi:nodetypes="csc" /><circle
         style="opacity:1;fill:none;stroke:#000000;stroke-width:2;stroke-linejoin:round;stroke-dasharray:none;stroke-opacity:1"
         id="circle12"
         cx="283.59393"
         cy="107.36629"
         r="26.053217" /><circle
         style="opacity:1;fill:none;stroke:#000000;stroke-width:2;stroke-linejoin:round;stroke-dasharray:none;stroke-opacity:1"
         id="circle16"
         cx="162.65646"
         cy="107.36629"
         r="26.053217" /><circle
         style="opacity:1;fill:none;stroke:#000000;stroke-width:1;stroke-linejoin:round;stroke-dasharray:none;stroke-opacity:1"
         id="circle11"
         cx="223.16498"
         cy="50.137852"
         r="2.1701417" /></g><rect
       style="opacity:1;fill:#000000;fill-opacity:0.603922;stroke:#000000;stroke-width:2;stroke-linejoin:round;stroke-dasharray:none;stroke-opacity:1"
       id="LPAD"
       width="89.167107"
       height="89.167107"
       x="130.5352"
       y="113.37931"
       transform="rotate(10.426969)"
       ry="16.475573" /><rect
       style="opacity:1;fill:#000000;fill-opacity:0.603922;stroke:#000000;stroke-width:2;stroke-linejoin:round;stroke-dasharray:none;stroke-opacity:1"
       id="BACK"
       width="26.959671"
       height="10.305262"
       x="135.57913"
       y="44.93417"
       ry="5.1526308" /><g
       id="g35"
       transform="translate(0.16232185,0.24296092)"
       sodipodi:insensitive="true"
       inkscape:label="BACK_glyph"
       style="display:inline"><rect
         style="opacity:1;fill:#ffffff;fill-opacity:0.67451;stroke:none;stroke-width:1;stroke-linejoin:round;stroke-dasharray:none;stroke-dashoffset:0;stroke-opacity:1"
         id="rect33"
         width="7.2662034"
         height="3.2487564"
         x="146.92206"
         y="49.197445"
         ry="0.40805158" /><path
         id="rect34"
         style="opacity:1;fill:none;fill-opacity:0.67451;stroke:#ffffff;stroke-width:1.2;stroke-linecap:round;stroke-linejoin:round;stroke-dasharray:none;stroke-opacity:0.67451;paint-order:stroke markers fill"
         d="m 145.50082,51.090235 h -1.29579 v -3.248757 h 7.2662"
         sodipodi:nodetypes="cccc" /></g><circle
       style="opacity:1;fill:#000000;fill-opacity:0.6;stroke:#000000;stroke-width:2;stroke-linejoin:round;stroke-dasharray:none;stroke-opacity:1"
       id="STICK"
       cx="162.81781"
       cy="107.36629"
       r="21.860748" /><circle
       style="opacity:1;fill:#000000;fill-opacity:0.30000001;stroke:#000000;stroke-width:2;stroke-linejoin:round;stroke-dasharray:none;stroke-opacity:1"
       id="STICKPRESS"
       cx="162.81781"
       cy="107.36629"
       r="15.678635" /><g
       id="g27"
       inkscape:label="grips"
       style="display:inline"><path
         style="opacity:0;fill:#000000;fill-opacity:0.6;stroke:#000000;stroke-width:1;stroke-linejoin:round;stroke-dasharray:none;stroke-dashoffset:0;stroke-opacity:1"
         d="m 339.81142,212.17177 c -5.59049,2.2279 -19.37745,-11.93243 -21.82512,-20.39732 -2.44768,-8.46488 4.11031,-23.01164 11.4225,-24.57876 8.36299,-1.79231 15.51841,4.67569 18.76553,17.03176 3.38815,12.89275 -2.15651,25.47096 -8.36291,27.94432 z"
         id="RGRIP2"
         sodipodi:nodetypes="sssss" /><ellipse
         style="opacity:0;fill:#000000;fill-opacity:0.6;stroke:#000000;stroke-width:1;stroke-linejoin:round;stroke-dasharray:none;stroke-dashoffset:0;stroke-opacity:1"
         id="RGRIP"
         cx="338.52023"
         cy="265.4519"
         rx="12.646333"
         ry="21.878786"
         transform="rotate(-2.9525283)" /><path
         style="opacity:0;fill:#000000;fill-opacity:0.6;stroke:#000000;stroke-width:1;stroke-linejoin:round;stroke-dasharray:none;stroke-dashoffset:0;stroke-opacity:1"
         d="m 106.28824,212.17177 c 5.59049,2.2279 19.37745,-11.93243 21.82512,-20.39732 2.44768,-8.46488 -4.11031,-23.01164 -11.4225,-24.57876 -8.36299,-1.79231 -15.51841,4.67569 -18.76553,17.03176 -3.38815,12.89275 2.15651,25.47096 8.36291,27.94432 z"
         id="LGRIP2"
         sodipodi:nodetypes="sssss" /><ellipse
         style="opacity:0;fill:#000000;fill-opacity:0.6;stroke:#000000;stroke-width:1;stroke-linejoin:round;stroke-dasharray:none;stroke-dashoffset:0;stroke-opacity:1"
         id="LGRIP"
         cx="-106.98557"
         cy="242.47382"
         rx="12.646"
         ry="21.878786"
         transform="matrix(-0.99867255,-0.05150854,-0.05150854,0.99867255,0,0)" /></g><path
       style="opacity:0;mix-blend-mode:normal;fill:#000000;fill-opacity:0.6;stroke:none;stroke-width:1;stroke-linejoin:round;stroke-dasharray:none;stroke-dashoffset:0;stroke-opacity:1;filter:url(#filter29)"
       d="m 408.48566,283.77008 c 10.93255,-1.40483 9.70871,-48.5251 5.84771,-79.40952 -3.86099,-30.88442 -9.58073,-60.603 -22.63501,-61.4189 -13.05428,-0.81589 1.61951,21.37101 7.10055,67.74805 5.48103,46.37704 -1.2458,74.4852 9.68675,73.08037 z"
       id="RSENSE"
       sodipodi:nodetypes="zzzzz"
       inkscape:label="RSENSE" /><path
       style="opacity:0;mix-blend-mode:normal;fill:#000000;fill-opacity:0.6;stroke:none;stroke-width:1;stroke-linejoin:round;stroke-dasharray:none;stroke-dashoffset:0;stroke-opacity:1;filter:url(#filter29)"
       d="m 408.48566,283.77008 c 10.93255,-1.40483 9.70871,-48.5251 5.84771,-79.40952 -3.86099,-30.88442 -9.58073,-60.603 -22.63501,-61.4189 -13.05428,-0.81589 1.61951,21.37101 7.10055,67.74805 5.48103,46.37704 -1.2458,74.4852 9.68675,73.08037 z"
       id="LSENSE"
       sodipodi:nodetypes="zzzzz"
       inkscape:label="LSENSE"
       transform="matrix(-1,0,0,1,444.11063,0)" /><rect
       style="opacity:0;fill:#000000;fill-opacity:0.603922;stroke:none;stroke-width:2;stroke-linejoin:round;stroke-dasharray:none;stroke-opacity:1"
       id="RPADPRESS"
       width="58.334999"
       height="58.335567"
       x="-293.37244"
       y="209.63977"
       transform="matrix(-0.98348639,0.18098209,0.18098209,0.98348639,0,0)"
       ry="10.778771" /><rect
       style="opacity:0;fill:#000000;fill-opacity:0.603922;stroke:none;stroke-width:2;stroke-linejoin:round;stroke-dasharray:none;stroke-opacity:1"
       id="LPADPRESS"
       width="58.335571"
       height="58.335571"
       x="145.95097"
       y="128.79507"
       transform="rotate(10.426969)"
       ry="10.778772" /></g><g
     id="g4"
     inkscape:label="Areas"
     style="display:none"><rect
       id="AREA_DPAD_1"
       x="68.77404"
       y="54.54327"
       width="47.451923"
       height="47.451923"
       style="fill:none;stroke:#ed00b4;stroke-width:1;stroke-dasharray:3, 2;stroke-dashoffset:0" /><rect
       id="AREA_DPADTEST"
       x="63.279499"
       y="46.230839"
       width="62.674877"
       height="62.674877"
       style="fill:none;stroke:#ed00b4;stroke-width:1;stroke-dasharray:3, 2;stroke-dashoffset:0" /><rect
       id="AREA_STICK_1"
       x="134.92445"
       y="78.976204"
       width="56"
       height="56"
       style="fill:none;stroke:#ed00b4;stroke-width:1;stroke-dasharray:3, 2" /><rect
       id="AREA_STICKTEST"
       x="135.53447"
       y="106.15452"
       width="56"
       height="1"
       style="fill:none;stroke:#ed00b4;stroke-width:0.890456;stroke-dasharray:2.67137, 1.78091" /><rect
       id="AREA_LPAD_1"
       x="98.83078"
       y="141.33078"
       width="90"
       height="90"
       style="fill:none;stroke:#ed00b4;stroke-width:0.999998;stroke-dasharray:3, 2" /><rect
       id="AREA_LPADTEST"
       x="99.636078"
       y="185.31541"
       width="90"
       height="1"
       style="fill:none;stroke:#ed00b4;stroke-width:1;stroke-dasharray:2.99999, 2" /><rect
       id="AREA_RPAD"
       x="256.20956"
       y="141.55573"
       width="90"
       height="90"
       style="fill:none;stroke:#ed00b4;stroke-width:1;stroke-dasharray:2.99999, 2;stroke-dashoffset:0"
       inkscape:label="AREA_RPAD" /><rect
       id="AREA_RPADTEST"
       x="256.46838"
       y="184.62282"
       width="90"
       height="1"
       style="fill:none;stroke:#ed00b4;stroke-width:0.885002;stroke-dasharray:2.65499, 1.77;stroke-dashoffset:0" /><rect
       id="AREA_RSTICK"
       x="255.46712"
       y="79.159889"
       width="56"
       height="56"
       style="fill:none;stroke:#ed00b4;stroke-width:1;stroke-dasharray:3, 2.00001;stroke-dashoffset:0" /><rect
       id="AREA_Y"
       x="338.07315"
       y="44.007458"
       width="26.546"
       height="26.545616"
       style="fill:none;stroke:#ed00b4;stroke-width:0.884854;stroke-dasharray:2.65456, 1.76971" /><rect
       id="AREA_B"
       x="361.97467"
       y="64.724648"
       width="26.74301"
       height="26.74301"
       style="fill:none;stroke:#ed00b4;stroke-width:0.891434;stroke-dasharray:2.6743, 1.78287" /><rect
       id="AREA_A"
       x="337.87595"
       y="86.625954"
       width="26.940403"
       height="26.940403"
       style="fill:none;stroke:#ed00b4;stroke-width:0.898013;stroke-dasharray:2.69404, 1.79603" /><rect
       id="AREA_X"
       x="313.97467"
       y="64.724648"
       width="26.74301"
       height="26.74301"
       style="fill:none;stroke:#ed00b4;stroke-width:0.891434;stroke-dasharray:2.6743, 1.78287" /><rect
       id="AREA_BACK"
       x="130.59923"
       y="39.610649"
       width="36.578178"
       height="22.1551"
       style="fill:none;stroke:#ed00b4;stroke-width:1;stroke-dasharray:3, 2;stroke-dashoffset:0" /><rect
       id="AREA_C"
       x="206.72215"
       y="62.010605"
       width="32.555698"
       height="32.555698"
       style="fill:none;stroke:#ed00b4;stroke-width:1.25215;stroke-dasharray:3.75643, 2.50428" /><rect
       id="AREA_START"
       x="279.73428"
       y="39.458965"
       width="34.711349"
       height="21.861046"
       style="fill:none;stroke:#ed00b4;stroke-width:1;stroke-dasharray:3.00001, 2;stroke-dashoffset:0" /><rect
       id="AREA_DOTS"
       x="201.90385"
       y="174.07692"
       width="42.48077"
       height="24.884615"
       style="fill:none;stroke:#ed00b4;stroke-width:1;stroke-dasharray:3.00001, 2" /><rect
       id="AREA_RT_1"
       x="320.83444"
       y="9.8187323"
       width="52.170555"
       height="12.641248"
       style="fill:none;stroke:#ed00b4;stroke-width:1;stroke-dasharray:3, 2;stroke-dashoffset:0" /><rect
       id="AREA_RB_1"
       x="312.85532"
       y="21.423599"
       width="53.94714"
       height="11.949086"
       style="fill:none;stroke:#ed00b4;stroke-width:1;stroke-dasharray:3.00002, 2.00002;stroke-dashoffset:0" /><rect
       id="AREA_RB_2"
       x="344.88605"
       y="26.840963"
       width="34.73653"
       height="15.122389"
       style="fill:none;stroke:#ed00b4;stroke-width:1;stroke-dasharray:3.00002, 2.00001;stroke-dashoffset:0" /><rect
       id="AREA_RSTICKTEST"
       x="256.39987"
       y="107.30836"
       width="56"
       height="1"
       style="fill:none;stroke:#ed00b4;stroke-width:0.890458;stroke-dasharray:2.67137, 1.78091" /><rect
       id="AREA_LT_1"
       x="77.434608"
       y="9.8187323"
       width="52.170555"
       height="12.641248"
       style="fill:none;stroke:#ed00b4;stroke-width:1;stroke-dasharray:3, 2;stroke-dashoffset:0" /><rect
       id="AREA_LB_1"
       x="83.637146"
       y="21.423599"
       width="53.94714"
       height="11.949086"
       style="fill:none;stroke:#ed00b4;stroke-width:1;stroke-dasharray:3.00002, 2.00002;stroke-dashoffset:0" /><rect
       id="AREA_LB_2"
       x="70.816559"
       y="26.840963"
       width="34.737"
       height="15.122389"
       style="fill:none;stroke:#ed00b4;stroke-width:1;stroke-dasharray:3.00002, 2.00001;stroke-dashoffset:0" /></g></svg>
